<?xml version="1.0" encoding="UTF-8"?>
<!DOCTYPE svg PUBLIC "-//W3C//DTD SVG 1.1//EN" "http://www.w3.org/Graphics/SVG/1.1/DTD/svg11.dtd">
<svg xmlns="http://www.w3.org/2000/svg" version="1.1" width="265px" height="265px" style="shape-rendering:geometricPrecision; text-rendering:geometricPrecision; image-rendering:optimizeQuality; fill-rule:evenodd; clip-rule:evenodd" xmlns:xlink="http://www.w3.org/1999/xlink">
<g><path style="opacity:0.988" fill="#efefef" d="M 217.5,36.5 C 222.026,39.2389 223.526,43.2389 222,48.5C 215.131,61.7437 207.631,74.5771 199.5,87C 183.764,94.8687 167.097,97.5354 149.5,95C 119.409,91.3109 89.4094,86.9776 59.5,82C 54.0227,80.6785 49.1894,78.1785 45,74.5C 43.7114,71.6492 43.2114,68.6492 43.5,65.5C 54.2728,53.5567 65.2728,41.7234 76.5,30C 83.2255,25.7573 90.5588,23.0906 98.5,22C 134.011,22.5745 169.344,25.5745 204.5,31C 209.22,32.1762 213.554,34.0096 217.5,36.5 Z"/></g>
<g><path style="opacity:0.998" fill="#080808" d="M 104.5,29.5 C 111.549,28.7179 118.216,29.8846 124.5,33C 125.876,35.5402 125.21,37.5402 122.5,39C 113.354,42.6666 104.521,42.1666 96,37.5C 95.3333,36.5 95.3333,35.5 96,34.5C 98.6822,32.415 101.516,30.7483 104.5,29.5 Z"/></g>
<g><path style="opacity:0.983" fill="#e5e5e5" d="M 217.5,36.5 C 224.5,38.8333 229.167,43.5 231.5,50.5C 229.726,49.119 228.226,49.4523 227,51.5C 220,64.8333 213,78.1667 206,91.5C 201.147,106.805 198.147,122.472 197,138.5C 196,168.496 195.667,198.496 196,228.5C 196.422,230.426 197.589,231.426 199.5,231.5C 189.283,239.348 177.616,243.015 164.5,242.5C 176.756,240.419 184.923,233.419 189,221.5C 190.136,192.173 190.469,162.839 190,133.5C 183.822,116.657 171.989,106.157 154.5,102C 123.285,98.1951 92.118,94.0285 61,89.5C 46.0752,90.1943 36.2418,97.5276 31.5,111.5C 30.5736,96.7217 33.4069,82.7217 40,69.5C 40.9487,67.9069 42.1154,66.5736 43.5,65.5C 43.2114,68.6492 43.7114,71.6492 45,74.5C 49.1894,78.1785 54.0227,80.6785 59.5,82C 89.4094,86.9776 119.409,91.3109 149.5,95C 167.097,97.5354 183.764,94.8687 199.5,87C 207.631,74.5771 215.131,61.7437 222,48.5C 223.526,43.2389 222.026,39.2389 217.5,36.5 Z"/></g>
<g><path style="opacity:0.998" fill="#0c0c0c" d="M 179.5,37.5 C 186.989,36.7474 193.822,38.4141 200,42.5C 200.63,44.9034 199.797,46.7367 197.5,48C 187.803,51.9671 178.637,51.1337 170,45.5C 169.333,44.5 169.333,43.5 170,42.5C 172.907,40.1317 176.074,38.465 179.5,37.5 Z"/></g>
<g><path style="opacity:0.999" fill="#040404" d="M 90.5,44.5 C 96.5933,44.1392 102.593,44.6392 108.5,46C 111.803,47.0068 112.97,49.1735 112,52.5C 109.808,54.2353 107.308,55.402 104.5,56C 98.0828,56.8696 91.7494,56.5362 85.5,55C 82.6936,53.6949 81.8603,51.5282 83,48.5C 85.5138,46.9958 88.0138,45.6624 90.5,44.5 Z"/></g>
<g><path style="opacity:0.972" fill="#c9c9c9" d="M 231.5,50.5 C 232.473,86.5315 230.973,122.532 227,158.5C 225.449,167.705 223.115,176.705 220,185.5C 214.39,198.386 209.057,211.386 204,224.5C 202.974,227.239 201.474,229.572 199.5,231.5C 197.589,231.426 196.422,230.426 196,228.5C 195.667,198.496 196,168.496 197,138.5C 198.147,122.472 201.147,106.805 206,91.5C 213,78.1667 220,64.8333 227,51.5C 228.226,49.4523 229.726,49.119 231.5,50.5 Z"/></g>
<g><path style="opacity:0.998" fill="#060606" d="M 166.5,53.5 C 174.108,52.8263 181.441,53.8263 188.5,56.5C 191.167,58.8333 191.167,61.1667 188.5,63.5C 179.09,67.6171 169.757,67.4504 160.5,63C 157.808,60.3676 158.141,58.0342 161.5,56C 163.315,55.2432 164.981,54.4098 166.5,53.5 Z"/></g>
<g><path style="opacity:1" fill="#050505" d="M 75.5,60.5 C 82.2569,60.1226 88.9236,60.6226 95.5,62C 98.8753,63.0295 100.042,65.1961 99,68.5C 95.9508,70.9638 92.4508,72.4638 88.5,73C 81.9159,74.1411 75.5826,73.4744 69.5,71C 66.7348,68.0337 67.0682,65.367 70.5,63C 72.3146,62.2432 73.9812,61.4098 75.5,60.5 Z"/></g>
<g><path style="opacity:0.999" fill="#0a0a0a" d="M 157.5,69.5 C 163.678,69.1067 169.678,69.9401 175.5,72C 181.008,74.1554 181.675,77.1554 177.5,81C 167.287,86.1098 157.453,85.6098 148,79.5C 147.333,77.8333 147.333,76.1667 148,74.5C 150.995,72.3475 154.162,70.6808 157.5,69.5 Z"/></g>
<g><path style="opacity:0.995" fill="#070707" d="M 225.5,72.5 C 228.246,81.6932 227.746,91.0266 224,100.5C 223.586,100.957 223.086,101.291 222.5,101.5C 220.808,91.5342 221.808,81.8676 225.5,72.5 Z"/></g>
<g><path style="opacity:0.993" fill="#cbcbcb" d="M 164.5,242.5 C 131.573,238.749 98.9064,233.249 66.5,226C 52.1489,220.317 42.6489,210.15 38,195.5C 35.06,167.554 32.8933,139.554 31.5,111.5C 36.2418,97.5276 46.0752,90.1943 61,89.5C 92.118,94.0285 123.285,98.1951 154.5,102C 171.989,106.157 183.822,116.657 190,133.5C 190.469,162.839 190.136,192.173 189,221.5C 184.923,233.419 176.756,240.419 164.5,242.5 Z"/></g>
<g><path style="opacity:0.998" fill="#090909" d="M 207.5,107.5 C 208.496,107.414 209.329,107.748 210,108.5C 211.032,117.722 210.032,126.722 207,135.5C 206.632,136.91 205.799,137.91 204.5,138.5C 202.603,127.839 203.603,117.506 207.5,107.5 Z"/></g>
<g><path style="opacity:0.999" fill="#040404" d="M 62.5,111.5 C 72.5685,111.115 79.7352,115.448 84,124.5C 85.3346,136.83 79.8346,141.997 67.5,140C 56.1999,135.571 52.3665,127.738 56,116.5C 57.9651,114.45 60.1318,112.783 62.5,111.5 Z"/></g>
<g><path style="opacity:0.999" fill="#050505" d="M 143.5,123.5 C 152.532,122.934 159.698,126.267 165,133.5C 168.762,147.072 163.596,153.572 149.5,153C 138.622,149.806 133.789,142.64 135,131.5C 137.074,127.923 139.907,125.256 143.5,123.5 Z"/></g>
<g><path style="opacity:0.997" fill="#101010" d="M 215.5,124.5 C 216.496,124.414 217.329,124.748 218,125.5C 218.85,135.721 217.017,145.387 212.5,154.5C 210.628,144.176 211.628,134.176 215.5,124.5 Z"/></g>
<g><path style="opacity:0.993" fill="#090909" d="M 222.5,139.5 C 223.794,141.048 224.461,143.048 224.5,145.5C 224.179,151.245 223.346,156.912 222,162.5C 221.64,164.421 220.806,166.088 219.5,167.5C 217.765,157.849 218.765,148.516 222.5,139.5 Z"/></g>
<g><path style="opacity:0.998" fill="#0b0b0b" d="M 205.5,178.5 C 208.722,188.737 207.556,198.737 202,208.5C 200.129,198.177 201.295,188.177 205.5,178.5 Z"/></g>
<g><path style="opacity:0.998" fill="#040404" d="M 64.5,183.5 C 76.9978,181.906 84.9978,187.072 88.5,199C 86.7439,207.827 81.4106,211.161 72.5,209C 63.6252,205.821 59.1252,199.655 59,190.5C 59.9668,187.379 61.8001,185.046 64.5,183.5 Z"/></g>
<g><path style="opacity:0.999" fill="#040404" d="M 142.5,196.5 C 155.061,194.931 163.061,200.098 166.5,212C 163.866,221.822 157.533,225.155 147.5,222C 138.939,218.702 135.106,212.535 136,203.5C 137.694,200.642 139.861,198.309 142.5,196.5 Z"/></g>
</svg>
